<?xml version="1.0" encoding="UTF-8" standalone="no"?>
<!DOCTYPE svg PUBLIC "-//W3C//DTD SVG 1.1//EN" "http://www.w3.org/Graphics/SVG/1.1/DTD/svg11.dtd">
<svg width="100%" height="100%" viewBox="0 0 1134 341" version="1.1" xmlns="http://www.w3.org/2000/svg" xmlns:xlink="http://www.w3.org/1999/xlink" xml:space="preserve" xmlns:serif="http://www.serif.com/" style="fill-rule:evenodd;clip-rule:evenodd;stroke-linecap:round;stroke-linejoin:round;stroke-miterlimit:1.5;">
    <path d="M1133.858,85.039L1133.858,255.118C1133.858,302.053 1095.753,340.157 1048.819,340.157L85.039,340.157C38.105,340.157 0,302.053 0,255.118L0,85.039C0,38.105 38.105,0 85.039,0L1048.819,0C1095.753,0 1133.858,38.105 1133.858,85.039Z" style="fill:rgb(13,19,33);stroke:black;stroke-width:1px;"/>
    <g id="BeliWood" transform="matrix(2.984591,0,0,2.984591,-1122.970166,-377.039715)">
        <g transform="matrix(72,0,0,72,408.672,210)">
            <path d="M0.527,-0.21C0.527,-0.155 0.508,-0.106 0.469,-0.065C0.428,-0.022 0.378,-0 0.317,-0L0.156,-0L0.156,-0.742L0.294,-0.742C0.344,-0.742 0.388,-0.724 0.425,-0.689C0.462,-0.654 0.481,-0.609 0.481,-0.555C0.481,-0.495 0.455,-0.444 0.402,-0.402C0.437,-0.387 0.466,-0.363 0.489,-0.33C0.514,-0.294 0.527,-0.254 0.527,-0.21ZM0.102,-0L0.05,-0L0.05,-0.742L0.102,-0.742L0.102,-0ZM0.428,-0.556C0.428,-0.594 0.415,-0.626 0.388,-0.651C0.361,-0.677 0.329,-0.69 0.292,-0.69L0.208,-0.69L0.208,-0.42L0.296,-0.42C0.331,-0.42 0.362,-0.433 0.389,-0.459C0.415,-0.485 0.428,-0.517 0.428,-0.556ZM0.474,-0.209C0.474,-0.254 0.458,-0.291 0.427,-0.322C0.396,-0.353 0.356,-0.368 0.309,-0.368L0.208,-0.368L0.208,-0.052L0.316,-0.052C0.361,-0.052 0.399,-0.068 0.43,-0.101C0.459,-0.132 0.474,-0.168 0.474,-0.209Z" style="fill:rgb(255,237,223);fill-rule:nonzero;"/>
        </g>
        <g transform="matrix(72,0,0,72,450.216,210)">
            <path d="M0.164,-0.085L0.164,-0.387C0.14,-0.372 0.12,-0.351 0.105,-0.323C0.09,-0.295 0.082,-0.266 0.082,-0.235C0.082,-0.172 0.109,-0.122 0.164,-0.085ZM0.211,-0.224L0.211,-0.064C0.228,-0.059 0.245,-0.056 0.261,-0.056L0.433,-0.056L0.433,-0L0.266,-0C0.197,-0 0.139,-0.024 0.093,-0.072C0.049,-0.117 0.027,-0.169 0.027,-0.228C0.027,-0.317 0.066,-0.388 0.144,-0.44C0.178,-0.463 0.218,-0.474 0.264,-0.474C0.317,-0.474 0.364,-0.459 0.404,-0.428C0.431,-0.407 0.454,-0.381 0.471,-0.352C0.493,-0.315 0.504,-0.272 0.503,-0.224L0.211,-0.224ZM0.211,-0.41L0.211,-0.275L0.443,-0.275C0.438,-0.304 0.423,-0.332 0.4,-0.357C0.363,-0.398 0.318,-0.418 0.265,-0.418C0.248,-0.418 0.23,-0.415 0.211,-0.41Z" style="fill:rgb(255,237,223);fill-rule:nonzero;"/>
        </g>
        <g transform="matrix(72,0,0,72,489.744,210)">
            <path d="M0.297,0.004L0.261,0.004C0.209,0.004 0.165,-0.015 0.129,-0.052C0.092,-0.089 0.074,-0.133 0.074,-0.184L0.074,-0.742L0.126,-0.742L0.126,-0.183C0.126,-0.14 0.142,-0.105 0.174,-0.08L0.174,-0.742L0.227,-0.742L0.227,-0.053C0.242,-0.05 0.251,-0.049 0.254,-0.049L0.297,-0.049L0.297,0.004Z" style="fill:rgb(255,237,223);fill-rule:nonzero;"/>
        </g>
        <g transform="matrix(72,0,0,72,512.568,210)">
            <path d="M0.253,-0.649C0.253,-0.62 0.243,-0.596 0.223,-0.576C0.203,-0.556 0.179,-0.546 0.15,-0.546C0.121,-0.546 0.097,-0.556 0.077,-0.576C0.057,-0.596 0.047,-0.62 0.047,-0.649C0.047,-0.678 0.057,-0.702 0.077,-0.722C0.097,-0.742 0.121,-0.752 0.15,-0.752C0.179,-0.752 0.203,-0.742 0.223,-0.722C0.243,-0.702 0.253,-0.678 0.253,-0.649ZM0.227,-0.464L0.227,-0L0.175,-0L0.175,-0.464L0.227,-0.464ZM0.126,-0L0.074,-0L0.074,-0.464L0.126,-0.464L0.126,-0ZM0.203,-0.649C0.203,-0.664 0.198,-0.676 0.188,-0.686C0.177,-0.697 0.165,-0.702 0.15,-0.702C0.135,-0.702 0.123,-0.697 0.113,-0.686C0.102,-0.676 0.097,-0.664 0.097,-0.649C0.097,-0.634 0.102,-0.622 0.113,-0.612C0.123,-0.601 0.135,-0.596 0.15,-0.596C0.165,-0.596 0.177,-0.601 0.188,-0.612C0.198,-0.622 0.203,-0.634 0.203,-0.649Z" style="fill:rgb(255,237,223);fill-rule:nonzero;"/>
        </g>
    </g>
    <g transform="matrix(1.144481,0,0,1.144481,-117.961826,-39.769691)">
        <rect x="990.101" y="113.628" width="9.764" height="139.32" style="fill:rgb(197,216,109);"/>
    </g>
    <g transform="matrix(1.144481,0,0,1.144481,-117.961826,-39.769691)">
        <path d="M980.901,252.948L971.137,252.948L971.137,246.188C966.005,251.821 958.745,254.638 949.357,254.638C937.841,254.638 928.109,250.319 920.16,241.682C912.211,233.045 908.237,222.843 908.237,211.077C908.112,192.926 915.998,179.533 931.895,170.896C938.029,167.516 944.726,165.826 951.986,165.826L971.137,165.826L971.137,113.628L980.901,113.628L980.901,252.948ZM971.137,223.469L971.137,176.153L951.61,176.153C943.349,176.153 935.963,179.22 929.454,185.353C922.444,191.988 918.94,200.061 918.94,209.575C918.94,218.587 921.693,226.599 927.201,233.608C932.959,241.119 940.219,244.874 948.982,244.874C952.987,244.874 956.805,243.935 960.435,242.058C967.57,238.302 971.137,232.106 971.137,223.469Z" style="fill:rgb(197,216,109);"/>
    </g>
    <g transform="matrix(1.144481,0,0,1.144481,-117.961826,-39.769691)">
        <path d="M891.338,209.387C891.338,222.03 886.926,232.763 878.101,241.588C869.276,250.413 858.543,254.825 845.9,254.825C833.257,254.825 822.524,250.413 813.699,241.588C804.874,232.763 800.461,222.03 800.461,209.387C800.461,196.744 804.874,186.011 813.699,177.186C822.524,168.361 833.257,163.948 845.9,163.948C858.543,163.948 869.276,168.361 878.101,177.186C886.926,186.011 891.338,196.744 891.338,209.387ZM826.748,239.053L826.748,179.721C815.983,186.48 810.601,196.369 810.601,209.387C810.601,222.405 815.983,232.294 826.748,239.053ZM881.199,209.387C881.199,199.498 877.788,191.143 870.966,184.321C864.144,177.499 855.789,174.088 845.9,174.088C842.395,174.088 838.953,174.588 835.573,175.59L835.573,243.184C838.953,244.186 842.395,244.686 845.9,244.686C855.789,244.686 864.144,241.275 870.966,234.453C877.788,227.631 881.199,219.276 881.199,209.387Z" style="fill:rgb(197,216,109);"/>
    </g>
    <g transform="matrix(1.144481,0,0,1.144481,-117.961826,-39.769691)">
        <path d="M784.314,209.387C784.314,222.03 779.901,232.763 771.077,241.588C762.252,250.413 751.518,254.825 738.875,254.825C726.233,254.825 715.499,250.413 706.674,241.588C697.849,232.763 693.437,222.03 693.437,209.387C693.437,196.744 697.849,186.011 706.674,177.186C715.499,168.361 726.233,163.948 738.875,163.948C751.518,163.948 762.252,168.361 771.077,177.186C779.901,186.011 784.314,196.744 784.314,209.387ZM774.175,209.387C774.175,199.498 770.764,191.143 763.942,184.321C757.12,177.499 748.764,174.088 738.875,174.088C735.371,174.088 731.928,174.588 728.548,175.59L728.548,243.184C731.928,244.186 735.371,244.686 738.875,244.686C748.764,244.686 757.12,241.275 763.942,234.453C770.764,227.631 774.175,219.276 774.175,209.387ZM719.724,239.053L719.724,179.721C708.959,186.48 703.576,196.369 703.576,209.387C703.576,222.405 708.959,232.294 719.724,239.053Z" style="fill:rgb(197,216,109);"/>
    </g>
    <g transform="matrix(1.144481,0,0,1.144481,-117.961826,-39.769691)">
        <path d="M599.931,162.822L574.208,252.948L561.628,252.948L519.569,113.628L529.708,113.628L567.636,239.053L573.081,220.653L540.786,113.628L549.986,113.628L577.588,204.881L603.686,113.628L613.638,113.628L642.553,207.322L671.281,113.628L681.42,113.628L639.549,252.948L627.345,252.948L599.931,162.822ZM637.859,222.155L609.695,128.837L604.438,147.801L632.79,241.119L637.859,222.155Z" style="fill:rgb(197,216,109);"/>
    </g>
</svg>
